<svg xmlns="http://www.w3.org/2000/svg" viewBox="0 0 256 256">
  <defs><clipPath id="body"><rect x="16" y="68" width="224" height="160" rx="22"/></clipPath></defs>
  <g fill="#2a5289"><path d="M16 64 Q16 44 36 44 L92 44 Q104 44 112 54 L122 68 L16 68 Z"/></g>
  <g fill="#3767a6"><rect x="16" y="68" width="224" height="160" rx="22"/></g>
  <g clip-path="url(#body)"><g fill="none" stroke="#ffffff" stroke-width="16" stroke-linecap="round" stroke-linejoin="round"><line x1="128" y1="150" x2="249.24" y2="220"/><line x1="128" y1="150" x2="128" y2="290"/><line x1="128" y1="150" x2="6.76" y2="220"/><line x1="128" y1="150" x2="6.76" y2="80"/><line x1="128" y1="150" x2="128" y2="10"/><line x1="128" y1="150" x2="249.24" y2="80"/><path d="M181.69 181 Q152.99 193.28 128 212 Q103.01 193.28 74.31 181 Q78.03 150 74.31 119 Q103.01 106.72 128 88 Q152.99 106.72 181.69 119 Q177.97 150 181.69 181"/></g></g>
</svg>