<svg xmlns="http://www.w3.org/2000/svg" viewBox="0 0 256 256">
  <defs><clipPath id="body"><rect x="16" y="68" width="224" height="160" rx="22"/></clipPath></defs>
  <g fill="#2a5289"><path d="M16 64 Q16 44 36 44 L92 44 Q104 44 112 54 L122 68 L16 68 Z"/></g>
  <g fill="#3767a6"><rect x="16" y="68" width="224" height="160" rx="22"/></g>
  <g clip-path="url(#body)"><g fill="none" stroke="#ffffff" stroke-width="8" stroke-linecap="round" stroke-linejoin="round"><line x1="128" y1="150" x2="268" y2="150"/><line x1="128" y1="150" x2="226.99" y2="248.99"/><line x1="128" y1="150" x2="128" y2="290"/><line x1="128" y1="150" x2="29.01" y2="248.99"/><line x1="128" y1="150" x2="-12" y2="150"/><line x1="128" y1="150" x2="29.01" y2="51.01"/><line x1="128" y1="150" x2="128" y2="10"/><line x1="128" y1="150" x2="226.99" y2="51.01"/><path d="M158 150 Q150.28 159.23 149.21 171.21 Q137.23 172.28 128 180 Q118.77 172.28 106.79 171.21 Q105.72 159.23 98 150 Q105.72 140.77 106.79 128.79 Q118.77 127.72 128 120 Q137.23 127.72 149.21 128.79 Q150.28 140.77 158 150"/><path d="M188 150 Q172.56 168.46 170.43 192.43 Q146.46 194.56 128 210 Q109.54 194.56 85.57 192.43 Q83.44 168.46 68 150 Q83.44 131.54 85.57 107.57 Q109.54 105.44 128 90 Q146.46 105.44 170.43 107.57 Q172.56 131.54 188 150"/><path d="M220 150 Q196.33 178.3 193.05 215.05 Q156.3 218.33 128 242 Q99.7 218.33 62.95 215.05 Q59.67 178.3 36 150 Q59.67 121.7 62.95 84.95 Q99.7 81.67 128 58 Q156.3 81.67 193.05 84.95 Q196.33 121.7 220 150"/></g></g>
</svg>